<mxfile host="app.diagrams.net" modified="2023-04-18T03:32:28.041Z" agent="Mozilla/5.0 (Windows NT 10.0; Win64; x64) AppleWebKit/537.36 (KHTML, like Gecko) Chrome/112.0.0.0 Safari/537.36" etag="UhE6Hwpbxi-QsU2a7UCC" version="21.1.8" type="device">
  <diagram name="Page-1" id="2YBvvXClWsGukQMizWep">
    <mxGraphModel dx="880" dy="452" grid="1" gridSize="10" guides="1" tooltips="1" connect="1" arrows="1" fold="1" page="1" pageScale="1" pageWidth="850" pageHeight="1100" math="0" shadow="0">
      <root>
        <mxCell id="0" />
        <mxCell id="1" parent="0" />
        <mxCell id="PhlMIdQ6p8V0w0D5in8y-14" value="" style="html=1;whiteSpace=transparent;" vertex="1" parent="1">
          <mxGeometry x="315" y="176" width="110" height="50" as="geometry" />
        </mxCell>
        <mxCell id="PhlMIdQ6p8V0w0D5in8y-1" value="Actor" style="shape=umlActor;verticalLabelPosition=bottom;verticalAlign=top;html=1;outlineConnect=0;" vertex="1" parent="1">
          <mxGeometry x="60" y="210" width="30" height="60" as="geometry" />
        </mxCell>
        <mxCell id="PhlMIdQ6p8V0w0D5in8y-4" value="" style="endArrow=none;html=1;rounded=0;" edge="1" parent="1">
          <mxGeometry width="50" height="50" relative="1" as="geometry">
            <mxPoint x="74" y="241" as="sourcePoint" />
            <mxPoint x="263.5" y="241" as="targetPoint" />
          </mxGeometry>
        </mxCell>
        <mxCell id="PhlMIdQ6p8V0w0D5in8y-5" value="" style="endArrow=none;html=1;rounded=0;exitX=0.5;exitY=1;exitDx=0;exitDy=0;entryX=0.5;entryY=0;entryDx=0;entryDy=0;" edge="1" parent="1" source="PhlMIdQ6p8V0w0D5in8y-8" target="PhlMIdQ6p8V0w0D5in8y-9">
          <mxGeometry width="50" height="50" relative="1" as="geometry">
            <mxPoint x="609.5" y="280" as="sourcePoint" />
            <mxPoint x="609.5" y="386" as="targetPoint" />
          </mxGeometry>
        </mxCell>
        <mxCell id="PhlMIdQ6p8V0w0D5in8y-6" value="" style="endArrow=none;html=1;rounded=0;" edge="1" parent="1">
          <mxGeometry width="50" height="50" relative="1" as="geometry">
            <mxPoint x="361" y="241" as="sourcePoint" />
            <mxPoint x="550.5" y="241" as="targetPoint" />
          </mxGeometry>
        </mxCell>
        <mxCell id="PhlMIdQ6p8V0w0D5in8y-8" value="&lt;b&gt;: Recommendation&lt;br&gt;Engine&lt;/b&gt;" style="rounded=0;whiteSpace=wrap;html=1;" vertex="1" parent="1">
          <mxGeometry x="550" y="210" width="120" height="60" as="geometry" />
        </mxCell>
        <mxCell id="PhlMIdQ6p8V0w0D5in8y-9" value="&lt;b&gt;: database&lt;/b&gt;" style="rounded=0;whiteSpace=wrap;html=1;" vertex="1" parent="1">
          <mxGeometry x="550" y="400" width="120" height="60" as="geometry" />
        </mxCell>
        <mxCell id="PhlMIdQ6p8V0w0D5in8y-10" value="&lt;b&gt;: UI&lt;/b&gt;" style="rounded=0;whiteSpace=wrap;html=1;" vertex="1" parent="1">
          <mxGeometry x="260" y="210" width="120" height="60" as="geometry" />
        </mxCell>
        <mxCell id="PhlMIdQ6p8V0w0D5in8y-11" value="&lt;b&gt;1 : Login()&lt;/b&gt;" style="text;html=1;align=center;verticalAlign=middle;resizable=0;points=[];autosize=1;strokeColor=none;fillColor=none;" vertex="1" parent="1">
          <mxGeometry x="100" y="168" width="80" height="30" as="geometry" />
        </mxCell>
        <mxCell id="PhlMIdQ6p8V0w0D5in8y-12" value="" style="endArrow=classic;html=1;rounded=0;" edge="1" parent="1">
          <mxGeometry width="50" height="50" relative="1" as="geometry">
            <mxPoint x="110" y="198" as="sourcePoint" />
            <mxPoint x="180" y="198" as="targetPoint" />
          </mxGeometry>
        </mxCell>
        <mxCell id="PhlMIdQ6p8V0w0D5in8y-16" value="&lt;b&gt;1.2 : invalid user()&lt;/b&gt;" style="text;html=1;align=center;verticalAlign=middle;resizable=0;points=[];autosize=1;strokeColor=none;fillColor=none;" vertex="1" parent="1">
          <mxGeometry x="305" y="120" width="130" height="30" as="geometry" />
        </mxCell>
        <mxCell id="PhlMIdQ6p8V0w0D5in8y-17" value="" style="endArrow=classic;html=1;rounded=0;" edge="1" parent="1">
          <mxGeometry width="50" height="50" relative="1" as="geometry">
            <mxPoint x="335" y="150" as="sourcePoint" />
            <mxPoint x="405" y="150" as="targetPoint" />
          </mxGeometry>
        </mxCell>
        <mxCell id="PhlMIdQ6p8V0w0D5in8y-18" value="&lt;b&gt;1.1 : authenticate()&lt;/b&gt;" style="text;html=1;align=center;verticalAlign=middle;resizable=0;points=[];autosize=1;strokeColor=none;fillColor=none;" vertex="1" parent="1">
          <mxGeometry x="395" y="182" width="130" height="30" as="geometry" />
        </mxCell>
        <mxCell id="PhlMIdQ6p8V0w0D5in8y-19" value="&lt;b&gt;1.4 : retrieve&amp;nbsp;mood()&lt;/b&gt;" style="text;html=1;align=center;verticalAlign=middle;resizable=0;points=[];autosize=1;strokeColor=none;fillColor=none;" vertex="1" parent="1">
          <mxGeometry x="395" y="270" width="140" height="30" as="geometry" />
        </mxCell>
        <mxCell id="PhlMIdQ6p8V0w0D5in8y-20" value="&lt;b&gt;1.5 : retrieve&amp;nbsp;music()&lt;/b&gt;" style="text;html=1;align=center;verticalAlign=middle;resizable=0;points=[];autosize=1;strokeColor=none;fillColor=none;" vertex="1" parent="1">
          <mxGeometry x="660" y="320" width="140" height="30" as="geometry" />
        </mxCell>
        <mxCell id="PhlMIdQ6p8V0w0D5in8y-21" value="&lt;b&gt;1.3 : click get mood()&lt;/b&gt;" style="text;html=1;align=center;verticalAlign=middle;resizable=0;points=[];autosize=1;strokeColor=none;fillColor=none;" vertex="1" parent="1">
          <mxGeometry x="117" y="260" width="140" height="30" as="geometry" />
        </mxCell>
        <mxCell id="PhlMIdQ6p8V0w0D5in8y-22" value="" style="endArrow=classic;html=1;rounded=0;" edge="1" parent="1">
          <mxGeometry width="50" height="50" relative="1" as="geometry">
            <mxPoint x="450" y="226" as="sourcePoint" />
            <mxPoint x="520" y="226" as="targetPoint" />
          </mxGeometry>
        </mxCell>
        <mxCell id="PhlMIdQ6p8V0w0D5in8y-23" value="" style="endArrow=classic;html=1;rounded=0;" edge="1" parent="1">
          <mxGeometry width="50" height="50" relative="1" as="geometry">
            <mxPoint x="450" y="300" as="sourcePoint" />
            <mxPoint x="520" y="300" as="targetPoint" />
          </mxGeometry>
        </mxCell>
        <mxCell id="PhlMIdQ6p8V0w0D5in8y-24" value="" style="endArrow=classic;html=1;rounded=0;" edge="1" parent="1">
          <mxGeometry width="50" height="50" relative="1" as="geometry">
            <mxPoint x="160" y="291" as="sourcePoint" />
            <mxPoint x="209" y="291" as="targetPoint" />
          </mxGeometry>
        </mxCell>
        <mxCell id="PhlMIdQ6p8V0w0D5in8y-25" value="" style="endArrow=classic;html=1;rounded=0;" edge="1" parent="1">
          <mxGeometry width="50" height="50" relative="1" as="geometry">
            <mxPoint x="660" y="300" as="sourcePoint" />
            <mxPoint x="660" y="370" as="targetPoint" />
          </mxGeometry>
        </mxCell>
        <mxCell id="PhlMIdQ6p8V0w0D5in8y-26" value="&lt;b&gt;1.6 : post method music()&lt;/b&gt;" style="text;html=1;align=center;verticalAlign=middle;resizable=0;points=[];autosize=1;strokeColor=none;fillColor=none;" vertex="1" parent="1">
          <mxGeometry x="585" y="152" width="170" height="30" as="geometry" />
        </mxCell>
        <mxCell id="PhlMIdQ6p8V0w0D5in8y-27" value="&lt;b&gt;1.7 : display music()&lt;/b&gt;" style="text;html=1;align=center;verticalAlign=middle;resizable=0;points=[];autosize=1;strokeColor=none;fillColor=none;" vertex="1" parent="1">
          <mxGeometry x="240" y="300" width="140" height="30" as="geometry" />
        </mxCell>
        <mxCell id="PhlMIdQ6p8V0w0D5in8y-28" value="" style="endArrow=classic;html=1;rounded=0;" edge="1" parent="1">
          <mxGeometry width="50" height="50" relative="1" as="geometry">
            <mxPoint x="352" y="333" as="sourcePoint" />
            <mxPoint x="272" y="333" as="targetPoint" />
          </mxGeometry>
        </mxCell>
        <mxCell id="PhlMIdQ6p8V0w0D5in8y-29" value="" style="endArrow=classic;html=1;rounded=0;" edge="1" parent="1">
          <mxGeometry width="50" height="50" relative="1" as="geometry">
            <mxPoint x="720" y="182.5" as="sourcePoint" />
            <mxPoint x="640" y="182.5" as="targetPoint" />
          </mxGeometry>
        </mxCell>
        <mxCell id="PhlMIdQ6p8V0w0D5in8y-30" value="&lt;b&gt;&lt;font style=&quot;font-size: 14px;&quot;&gt;by - Group 8&lt;br&gt;vamshidhar&amp;nbsp;&lt;br&gt;biswanth&lt;br&gt;asvad&lt;/font&gt;&lt;/b&gt;" style="text;html=1;align=center;verticalAlign=middle;resizable=0;points=[];autosize=1;strokeColor=none;fillColor=none;" vertex="1" parent="1">
          <mxGeometry x="115" y="413" width="110" height="80" as="geometry" />
        </mxCell>
      </root>
    </mxGraphModel>
  </diagram>
</mxfile>
